<svg id="visual" viewBox="0 0 1920 1080" width="1920" height="1080" xmlns="http://www.w3.org/2000/svg" xmlns:xlink="http://www.w3.org/1999/xlink" version="1.1"><rect x="0" y="0" width="1920" height="1080" fill="#00000000"></rect><defs><linearGradient id="grad1_0" x1="43.8%" y1="0%" x2="100%" y2="100%"><stop offset="14.444444444444446%" stop-color="#00000000" stop-opacity="1"></stop><stop offset="85.55555555555554%" stop-color="#00000000" stop-opacity="1"></stop></linearGradient></defs><defs><linearGradient id="grad2_0" x1="0%" y1="0%" x2="56.3%" y2="100%"><stop offset="14.444444444444446%" stop-color="#00000000" stop-opacity="1"></stop><stop offset="85.55555555555554%" stop-color="#00000000" stop-opacity="1"></stop></linearGradient></defs><g transform="translate(1920, 0)"><path d="M0 432C-61.3 396.8 -122.6 361.6 -190.5 330C-258.4 298.4 -332.8 270.4 -374.1 216C-415.5 161.6 -423.7 80.8 -432 0L0 0Z" fill="#e52d27"></path></g><g transform="translate(0, 1080)"><path d="M0 -432C71.2 -413.9 142.4 -395.7 209 -362C275.6 -328.3 337.7 -278.9 374.1 -216C410.5 -153.1 421.3 -76.5 432 0L0 0Z" fill="#e52d27"></path></g></svg>